<svg xmlns="http://www.w3.org/2000/svg" xmlns:xlink="http://www.w3.org/1999/xlink" width="500" zoomAndPan="magnify" viewBox="0 0 375 374.999991" height="500" preserveAspectRatio="xMidYMid meet" version="1.0"><defs><clipPath id="6a4f4300cd"><path d="M 31 57.222656 L 344.828125 57.222656 L 344.828125 317 L 31 317 Z M 31 57.222656 " clip-rule="nonzero"/></clipPath></defs><g clip-path="url(#6a4f4300cd)"><path fill="#e12c2c" d="M 324.691406 98.898438 L 51.667969 98.898438 C 51 98.898438 50.328125 98.867188 49.660156 98.800781 C 48.996094 98.734375 48.332031 98.636719 47.675781 98.503906 C 47.015625 98.375 46.367188 98.210938 45.726562 98.015625 C 45.082031 97.824219 44.453125 97.597656 43.832031 97.339844 C 43.214844 97.082031 42.609375 96.796875 42.015625 96.480469 C 41.425781 96.164062 40.851562 95.820312 40.292969 95.449219 C 39.734375 95.074219 39.195312 94.675781 38.679688 94.25 C 38.160156 93.824219 37.664062 93.375 37.191406 92.902344 C 36.714844 92.425781 36.265625 91.929688 35.839844 91.414062 C 35.414062 90.894531 35.015625 90.355469 34.644531 89.796875 C 34.269531 89.242188 33.925781 88.667969 33.609375 88.074219 C 33.292969 87.484375 33.007812 86.878906 32.75 86.257812 C 32.496094 85.636719 32.269531 85.007812 32.074219 84.367188 C 31.878906 83.722656 31.714844 83.074219 31.585938 82.417969 C 31.453125 81.757812 31.355469 81.097656 31.289062 80.429688 C 31.226562 79.761719 31.191406 79.09375 31.191406 78.421875 C 31.191406 77.75 31.226562 77.082031 31.289062 76.414062 C 31.355469 75.746094 31.453125 75.085938 31.585938 74.425781 C 31.714844 73.769531 31.878906 73.121094 32.074219 72.476562 C 32.269531 71.835938 32.496094 71.207031 32.75 70.585938 C 33.007812 69.964844 33.292969 69.359375 33.609375 68.769531 C 33.925781 68.179688 34.269531 67.605469 34.644531 67.046875 C 35.015625 66.488281 35.414062 65.949219 35.839844 65.433594 C 36.265625 64.914062 36.714844 64.417969 37.191406 63.941406 C 37.664062 63.46875 38.160156 63.019531 38.679688 62.59375 C 39.195312 62.167969 39.734375 61.769531 40.292969 61.394531 C 40.851562 61.023438 41.425781 60.679688 42.015625 60.363281 C 42.609375 60.046875 43.214844 59.761719 43.832031 59.503906 C 44.453125 59.246094 45.082031 59.023438 45.726562 58.828125 C 46.367188 58.632812 47.015625 58.46875 47.675781 58.339844 C 48.332031 58.207031 48.996094 58.109375 49.660156 58.042969 C 50.328125 57.976562 51 57.945312 51.667969 57.945312 L 324.691406 57.945312 C 325.359375 57.945312 326.03125 57.976562 326.699219 58.042969 C 327.363281 58.109375 328.027344 58.207031 328.683594 58.339844 C 329.34375 58.46875 329.992188 58.632812 330.632812 58.828125 C 331.277344 59.023438 331.90625 59.246094 332.527344 59.503906 C 333.144531 59.761719 333.75 60.046875 334.34375 60.363281 C 334.933594 60.679688 335.507812 61.023438 336.066406 61.394531 C 336.625 61.769531 337.160156 62.167969 337.679688 62.59375 C 338.199219 63.019531 338.695312 63.46875 339.167969 63.941406 C 339.644531 64.417969 340.09375 64.914062 340.519531 65.433594 C 340.945312 65.949219 341.34375 66.488281 341.714844 67.046875 C 342.089844 67.605469 342.433594 68.179688 342.75 68.769531 C 343.066406 69.359375 343.351562 69.964844 343.609375 70.585938 C 343.863281 71.207031 344.089844 71.835938 344.285156 72.476562 C 344.480469 73.121094 344.640625 73.769531 344.773438 74.425781 C 344.902344 75.085938 345.003906 75.746094 345.066406 76.414062 C 345.132812 77.082031 345.167969 77.75 345.167969 78.421875 C 345.167969 79.09375 345.132812 79.761719 345.066406 80.429688 C 345.003906 81.097656 344.902344 81.757812 344.773438 82.417969 C 344.640625 83.074219 344.480469 83.722656 344.285156 84.367188 C 344.089844 85.007812 343.863281 85.636719 343.609375 86.257812 C 343.351562 86.878906 343.066406 87.484375 342.75 88.074219 C 342.433594 88.667969 342.089844 89.242188 341.714844 89.796875 C 341.34375 90.355469 340.945312 90.894531 340.519531 91.414062 C 340.09375 91.929688 339.644531 92.425781 339.167969 92.902344 C 338.695312 93.375 338.199219 93.824219 337.679688 94.25 C 337.160156 94.675781 336.625 95.074219 336.066406 95.449219 C 335.507812 95.820312 334.933594 96.164062 334.34375 96.480469 C 333.75 96.796875 333.144531 97.082031 332.527344 97.339844 C 331.90625 97.597656 331.277344 97.824219 330.632812 98.015625 C 329.992188 98.210938 329.34375 98.375 328.683594 98.503906 C 328.027344 98.636719 327.363281 98.734375 326.699219 98.800781 C 326.03125 98.867188 325.359375 98.898438 324.691406 98.898438 Z M 345.441406 186.8125 C 345.441406 186.140625 345.40625 185.472656 345.339844 184.804688 C 345.277344 184.136719 345.175781 183.472656 345.046875 182.816406 C 344.914062 182.160156 344.753906 181.507812 344.558594 180.867188 C 344.363281 180.226562 344.136719 179.59375 343.882812 178.976562 C 343.625 178.355469 343.339844 177.75 343.023438 177.160156 C 342.707031 176.566406 342.363281 175.992188 341.988281 175.433594 C 341.617188 174.878906 341.21875 174.339844 340.792969 173.820312 C 340.367188 173.304688 339.917969 172.808594 339.441406 172.332031 C 338.96875 171.859375 338.472656 171.410156 337.953125 170.984375 C 337.433594 170.558594 336.898438 170.160156 336.339844 169.785156 C 335.78125 169.414062 335.207031 169.070312 334.617188 168.753906 C 334.023438 168.4375 333.417969 168.148438 332.800781 167.894531 C 332.179688 167.636719 331.550781 167.410156 330.90625 167.214844 C 330.265625 167.023438 329.617188 166.859375 328.957031 166.726562 C 328.300781 166.597656 327.636719 166.5 326.96875 166.433594 C 326.304688 166.367188 325.632812 166.335938 324.964844 166.335938 L 51.667969 166.335938 C 51 166.335938 50.328125 166.367188 49.660156 166.433594 C 48.996094 166.5 48.332031 166.597656 47.675781 166.726562 C 47.015625 166.859375 46.367188 167.023438 45.726562 167.214844 C 45.082031 167.410156 44.453125 167.636719 43.832031 167.894531 C 43.214844 168.148438 42.609375 168.4375 42.015625 168.753906 C 41.425781 169.070312 40.851562 169.414062 40.292969 169.785156 C 39.734375 170.160156 39.195312 170.558594 38.679688 170.984375 C 38.160156 171.410156 37.664062 171.859375 37.191406 172.332031 C 36.714844 172.808594 36.265625 173.304688 35.839844 173.820312 C 35.414062 174.339844 35.015625 174.878906 34.644531 175.433594 C 34.269531 175.992188 33.925781 176.566406 33.609375 177.160156 C 33.292969 177.75 33.007812 178.355469 32.75 178.976562 C 32.496094 179.59375 32.269531 180.226562 32.074219 180.867188 C 31.878906 181.507812 31.714844 182.160156 31.585938 182.816406 C 31.453125 183.472656 31.355469 184.136719 31.289062 184.804688 C 31.226562 185.472656 31.191406 186.140625 31.191406 186.8125 C 31.191406 187.480469 31.226562 188.152344 31.289062 188.820312 C 31.355469 189.484375 31.453125 190.148438 31.585938 190.804688 C 31.714844 191.464844 31.878906 192.113281 32.074219 192.753906 C 32.269531 193.398438 32.496094 194.027344 32.75 194.648438 C 33.007812 195.265625 33.292969 195.871094 33.609375 196.464844 C 33.925781 197.054688 34.269531 197.628906 34.644531 198.1875 C 35.015625 198.746094 35.414062 199.285156 35.839844 199.800781 C 36.265625 200.320312 36.714844 200.816406 37.191406 201.289062 C 37.664062 201.765625 38.160156 202.214844 38.679688 202.640625 C 39.195312 203.066406 39.734375 203.464844 40.292969 203.835938 C 40.851562 204.210938 41.425781 204.554688 42.015625 204.871094 C 42.609375 205.1875 43.214844 205.472656 43.832031 205.730469 C 44.453125 205.984375 45.082031 206.210938 45.726562 206.40625 C 46.367188 206.601562 47.015625 206.765625 47.675781 206.894531 C 48.332031 207.027344 48.996094 207.125 49.660156 207.191406 C 50.328125 207.253906 51 207.289062 51.667969 207.289062 L 324.691406 207.289062 C 325.367188 207.296875 326.042969 207.273438 326.714844 207.214844 C 327.390625 207.15625 328.058594 207.066406 328.722656 206.941406 C 329.386719 206.816406 330.046875 206.660156 330.695312 206.472656 C 331.34375 206.28125 331.984375 206.0625 332.609375 205.808594 C 333.238281 205.554688 333.851562 205.273438 334.449219 204.960938 C 335.050781 204.644531 335.632812 204.304688 336.199219 203.933594 C 336.761719 203.5625 337.308594 203.164062 337.835938 202.738281 C 338.359375 202.3125 338.863281 201.863281 339.347656 201.386719 C 339.828125 200.914062 340.285156 200.414062 340.714844 199.894531 C 341.148438 199.375 341.554688 198.835938 341.933594 198.273438 C 342.3125 197.714844 342.660156 197.136719 342.980469 196.539062 C 343.304688 195.945312 343.59375 195.335938 343.855469 194.710938 C 344.117188 194.085938 344.347656 193.453125 344.542969 192.804688 C 344.742188 192.160156 344.90625 191.503906 345.039062 190.839844 C 345.171875 190.175781 345.273438 189.507812 345.339844 188.835938 C 345.40625 188.164062 345.441406 187.488281 345.441406 186.8125 Z M 345.441406 296.019531 C 345.441406 295.347656 345.40625 294.679688 345.339844 294.011719 C 345.277344 293.347656 345.175781 292.683594 345.046875 292.023438 C 344.914062 291.367188 344.753906 290.71875 344.558594 290.074219 C 344.363281 289.433594 344.136719 288.804688 343.882812 288.183594 C 343.625 287.566406 343.339844 286.960938 343.023438 286.367188 C 342.707031 285.777344 342.363281 285.203125 341.988281 284.644531 C 341.617188 284.085938 341.21875 283.546875 340.792969 283.03125 C 340.367188 282.511719 339.917969 282.015625 339.441406 281.542969 C 338.96875 281.066406 338.472656 280.617188 337.953125 280.191406 C 337.433594 279.765625 336.898438 279.367188 336.339844 278.996094 C 335.78125 278.621094 335.207031 278.277344 334.617188 277.960938 C 334.023438 277.644531 333.417969 277.359375 332.800781 277.101562 C 332.179688 276.84375 331.550781 276.621094 330.90625 276.425781 C 330.265625 276.230469 329.617188 276.066406 328.957031 275.9375 C 328.300781 275.804688 327.636719 275.707031 326.96875 275.640625 C 326.304688 275.578125 325.632812 275.542969 324.964844 275.542969 L 51.667969 275.542969 C 51 275.542969 50.328125 275.578125 49.660156 275.640625 C 48.996094 275.707031 48.332031 275.804688 47.675781 275.9375 C 47.015625 276.066406 46.367188 276.230469 45.726562 276.425781 C 45.082031 276.621094 44.453125 276.84375 43.832031 277.101562 C 43.214844 277.359375 42.609375 277.644531 42.015625 277.960938 C 41.425781 278.277344 40.851562 278.621094 40.292969 278.996094 C 39.734375 279.367188 39.195312 279.765625 38.679688 280.191406 C 38.160156 280.617188 37.664062 281.066406 37.191406 281.542969 C 36.714844 282.015625 36.265625 282.511719 35.839844 283.03125 C 35.414062 283.546875 35.015625 284.085938 34.644531 284.644531 C 34.269531 285.203125 33.925781 285.777344 33.609375 286.367188 C 33.292969 286.960938 33.007812 287.566406 32.75 288.183594 C 32.496094 288.804688 32.269531 289.433594 32.074219 290.074219 C 31.878906 290.71875 31.714844 291.367188 31.585938 292.027344 C 31.453125 292.683594 31.355469 293.347656 31.289062 294.011719 C 31.226562 294.679688 31.191406 295.347656 31.191406 296.019531 C 31.191406 296.691406 31.226562 297.359375 31.289062 298.027344 C 31.355469 298.695312 31.453125 299.355469 31.585938 300.015625 C 31.714844 300.671875 31.878906 301.324219 32.074219 301.964844 C 32.269531 302.605469 32.496094 303.238281 32.75 303.855469 C 33.007812 304.476562 33.292969 305.082031 33.609375 305.671875 C 33.925781 306.265625 34.269531 306.839844 34.644531 307.394531 C 35.015625 307.953125 35.414062 308.492188 35.839844 309.011719 C 36.265625 309.527344 36.714844 310.023438 37.191406 310.5 C 37.664062 310.972656 38.160156 311.421875 38.679688 311.847656 C 39.195312 312.273438 39.734375 312.671875 40.292969 313.046875 C 40.851562 313.417969 41.425781 313.761719 42.015625 314.078125 C 42.609375 314.394531 43.214844 314.679688 43.832031 314.9375 C 44.453125 315.195312 45.082031 315.421875 45.726562 315.613281 C 46.367188 315.808594 47.015625 315.972656 47.675781 316.101562 C 48.332031 316.234375 48.996094 316.332031 49.660156 316.398438 C 50.328125 316.464844 51 316.496094 51.667969 316.496094 L 324.691406 316.496094 C 325.382812 316.507812 326.078125 316.480469 326.769531 316.421875 C 327.457031 316.359375 328.144531 316.265625 328.828125 316.132812 C 329.507812 316.003906 330.179688 315.839844 330.847656 315.640625 C 331.511719 315.441406 332.164062 315.210938 332.804688 314.945312 C 333.445312 314.679688 334.070312 314.382812 334.683594 314.054688 C 335.292969 313.726562 335.886719 313.367188 336.460938 312.976562 C 337.035156 312.589844 337.589844 312.171875 338.121094 311.726562 C 338.652344 311.28125 339.160156 310.808594 339.644531 310.3125 C 340.128906 309.816406 340.585938 309.296875 341.019531 308.75 C 341.449219 308.207031 341.851562 307.644531 342.226562 307.058594 C 342.601562 306.476562 342.945312 305.875 343.257812 305.253906 C 343.570312 304.636719 343.851562 304 344.097656 303.351562 C 344.347656 302.707031 344.5625 302.046875 344.742188 301.378906 C 344.925781 300.707031 345.070312 300.03125 345.183594 299.34375 C 345.296875 298.660156 345.375 297.972656 345.417969 297.28125 C 345.460938 296.585938 345.46875 295.894531 345.441406 295.199219 Z M 345.441406 296.019531 " fill-opacity="1" fill-rule="nonzero"/></g></svg>