<svg xmlns="http://www.w3.org/2000/svg" xmlns:xlink="http://www.w3.org/1999/xlink" width="500" zoomAndPan="magnify" viewBox="0 0 375 374.999991" height="500" preserveAspectRatio="xMidYMid meet" version="1.0"><defs><clipPath id="e03d3ed29d"><path d="M 135.320312 144.386719 L 239.570312 144.386719 L 239.570312 230.636719 L 135.320312 230.636719 Z M 135.320312 144.386719 " clip-rule="nonzero"/></clipPath></defs><g clip-path="url(#e03d3ed29d)"><path fill="#e12c2c" d="M 232.898438 158.179688 L 142.546875 158.179688 C 142.101562 158.179688 141.660156 158.136719 141.226562 158.050781 C 140.789062 157.960938 140.363281 157.835938 139.953125 157.664062 C 139.542969 157.492188 139.152344 157.285156 138.78125 157.039062 C 138.414062 156.789062 138.070312 156.507812 137.753906 156.195312 C 137.441406 155.878906 137.160156 155.539062 136.914062 155.167969 C 136.664062 154.796875 136.457031 154.40625 136.285156 153.996094 C 136.117188 153.585938 135.988281 153.160156 135.902344 152.726562 C 135.8125 152.289062 135.769531 151.847656 135.769531 151.402344 C 135.769531 150.957031 135.8125 150.519531 135.902344 150.082031 C 135.988281 149.644531 136.117188 149.222656 136.285156 148.808594 C 136.457031 148.398438 136.664062 148.007812 136.914062 147.640625 C 137.160156 147.269531 137.441406 146.925781 137.753906 146.613281 C 138.070312 146.296875 138.414062 146.015625 138.78125 145.769531 C 139.152344 145.523438 139.542969 145.3125 139.953125 145.144531 C 140.363281 144.972656 140.789062 144.84375 141.226562 144.757812 C 141.660156 144.671875 142.101562 144.628906 142.546875 144.628906 L 232.898438 144.628906 C 233.34375 144.628906 233.785156 144.671875 234.21875 144.757812 C 234.65625 144.84375 235.082031 144.972656 235.492188 145.144531 C 235.902344 145.3125 236.292969 145.523438 236.664062 145.769531 C 237.03125 146.015625 237.375 146.296875 237.691406 146.613281 C 238.003906 146.925781 238.285156 147.269531 238.53125 147.640625 C 238.78125 148.007812 238.988281 148.398438 239.160156 148.808594 C 239.328125 149.222656 239.457031 149.644531 239.542969 150.082031 C 239.632812 150.519531 239.675781 150.957031 239.675781 151.402344 C 239.675781 151.847656 239.632812 152.289062 239.542969 152.726562 C 239.457031 153.160156 239.328125 153.585938 239.160156 153.996094 C 238.988281 154.40625 238.78125 154.796875 238.53125 155.167969 C 238.285156 155.539062 238.003906 155.878906 237.691406 156.195312 C 237.375 156.507812 237.03125 156.789062 236.664062 157.039062 C 236.292969 157.285156 235.902344 157.492188 235.492188 157.664062 C 235.082031 157.835938 234.65625 157.960938 234.21875 158.050781 C 233.785156 158.136719 233.34375 158.179688 232.898438 158.179688 Z M 239.765625 187.273438 C 239.765625 186.828125 239.722656 186.386719 239.632812 185.949219 C 239.546875 185.515625 239.417969 185.089844 239.25 184.679688 C 239.078125 184.269531 238.871094 183.878906 238.621094 183.507812 C 238.375 183.136719 238.09375 182.796875 237.78125 182.480469 C 237.464844 182.167969 237.125 181.886719 236.753906 181.636719 C 236.382812 181.390625 235.992188 181.183594 235.582031 181.011719 C 235.171875 180.84375 234.746094 180.714844 234.308594 180.625 C 233.875 180.539062 233.433594 180.496094 232.988281 180.496094 L 142.546875 180.496094 C 142.101562 180.496094 141.660156 180.539062 141.226562 180.625 C 140.789062 180.714844 140.363281 180.84375 139.953125 181.011719 C 139.542969 181.183594 139.152344 181.390625 138.78125 181.636719 C 138.414062 181.886719 138.070312 182.167969 137.753906 182.480469 C 137.441406 182.796875 137.160156 183.136719 136.914062 183.507812 C 136.664062 183.878906 136.457031 184.269531 136.285156 184.679688 C 136.117188 185.089844 135.988281 185.515625 135.902344 185.949219 C 135.8125 186.386719 135.769531 186.828125 135.769531 187.273438 C 135.769531 187.71875 135.8125 188.160156 135.902344 188.59375 C 135.988281 189.03125 136.117188 189.453125 136.285156 189.867188 C 136.457031 190.277344 136.664062 190.667969 136.914062 191.039062 C 137.160156 191.40625 137.441406 191.75 137.753906 192.0625 C 138.070312 192.378906 138.414062 192.660156 138.78125 192.90625 C 139.152344 193.15625 139.542969 193.363281 139.953125 193.535156 C 140.363281 193.703125 140.789062 193.832031 141.226562 193.917969 C 141.660156 194.003906 142.101562 194.050781 142.546875 194.050781 L 232.898438 194.050781 C 233.347656 194.054688 233.792969 194.015625 234.234375 193.933594 C 234.675781 193.851562 235.101562 193.726562 235.519531 193.558594 C 235.933594 193.390625 236.332031 193.183594 236.707031 192.9375 C 237.082031 192.691406 237.429688 192.410156 237.75 192.097656 C 238.066406 191.78125 238.351562 191.4375 238.605469 191.066406 C 238.855469 190.695312 239.066406 190.300781 239.242188 189.886719 C 239.414062 189.472656 239.542969 189.046875 239.632812 188.605469 C 239.722656 188.164062 239.765625 187.722656 239.765625 187.273438 Z M 239.765625 223.414062 C 239.765625 222.96875 239.722656 222.527344 239.632812 222.089844 C 239.546875 221.65625 239.417969 221.230469 239.25 220.820312 C 239.078125 220.410156 238.871094 220.019531 238.621094 219.648438 C 238.375 219.277344 238.09375 218.9375 237.78125 218.621094 C 237.464844 218.308594 237.125 218.027344 236.753906 217.777344 C 236.382812 217.53125 235.992188 217.324219 235.582031 217.152344 C 235.171875 216.984375 234.746094 216.855469 234.308594 216.765625 C 233.875 216.679688 233.433594 216.636719 232.988281 216.636719 L 142.546875 216.636719 C 142.101562 216.636719 141.660156 216.679688 141.226562 216.765625 C 140.789062 216.855469 140.363281 216.984375 139.953125 217.152344 C 139.542969 217.324219 139.152344 217.53125 138.78125 217.777344 C 138.414062 218.027344 138.070312 218.308594 137.753906 218.621094 C 137.441406 218.9375 137.160156 219.277344 136.914062 219.648438 C 136.664062 220.019531 136.457031 220.410156 136.285156 220.820312 C 136.117188 221.230469 135.988281 221.65625 135.902344 222.089844 C 135.8125 222.527344 135.769531 222.96875 135.769531 223.414062 C 135.769531 223.859375 135.8125 224.300781 135.902344 224.734375 C 135.988281 225.171875 136.117188 225.59375 136.285156 226.007812 C 136.457031 226.417969 136.664062 226.808594 136.914062 227.179688 C 137.160156 227.546875 137.441406 227.890625 137.753906 228.203125 C 138.070312 228.519531 138.414062 228.800781 138.78125 229.046875 C 139.152344 229.292969 139.542969 229.503906 139.953125 229.671875 C 140.363281 229.84375 140.789062 229.972656 141.226562 230.058594 C 141.660156 230.144531 142.101562 230.191406 142.546875 230.191406 L 232.898438 230.191406 C 233.359375 230.195312 233.816406 230.15625 234.265625 230.070312 C 234.71875 229.984375 235.15625 229.851562 235.582031 229.675781 C 236.007812 229.5 236.414062 229.28125 236.792969 229.023438 C 237.175781 228.765625 237.527344 228.472656 237.847656 228.144531 C 238.167969 227.8125 238.453125 227.453125 238.703125 227.066406 C 238.949219 226.679688 239.15625 226.269531 239.320312 225.839844 C 239.484375 225.410156 239.605469 224.96875 239.679688 224.515625 C 239.753906 224.058594 239.785156 223.601562 239.765625 223.140625 Z M 239.765625 223.414062 " fill-opacity="1" fill-rule="nonzero"/></g></svg>